<svg xmlns="http://www.w3.org/2000/svg" viewBox="0 0 354.18 351.45"><defs><style>.cls-1{fill:#5ca967;}.cls-2{fill:#474755;}</style></defs><g id="Layer_2" data-name="Layer 2"><g id="Layer_1-2" data-name="Layer 1"><path class="cls-1" d="M228.23,169.6c0,74.64-44.37,100.7-99.11,100.7S30,244.24,30,169.6,129.12,0,129.12,0,228.23,95,228.23,169.6Z"/><polygon class="cls-2" points="125.51 258.88 126.53 196.41 168.77 119.13 126.69 186.61 127.14 158.53 156.26 102.61 127.26 151.09 127.26 151.09 128.09 100.58 159.26 56.06 128.21 92.63 128.73 0 125.5 122.63 125.77 117.57 94.07 69.05 125.26 127.28 122.31 183.7 122.22 182.2 85.68 131.15 122.11 187.49 121.74 194.55 121.67 194.65 121.7 195.23 114.21 338.37 124.22 338.37 125.42 264.44 161.76 208.23 125.51 258.88"/><path class="cls-1" d="M354.18,235.94c0,47.72-28.37,64.38-63.37,64.38s-63.36-16.66-63.36-64.38,63.36-108.43,63.36-108.43S354.18,188.22,354.18,235.94Z"/><polygon class="cls-2" points="288.5 293.02 289.15 253.09 316.16 203.68 289.25 246.82 289.55 228.86 308.16 193.12 289.62 224.11 289.62 224.11 290.15 191.81 310.08 163.35 290.23 186.73 290.56 127.51 288.5 205.91 288.67 202.68 268.4 171.66 288.34 208.89 286.45 244.96 286.4 244 263.04 211.36 286.33 247.38 286.09 251.89 286.05 251.96 286.07 252.33 281.28 343.85 287.68 343.85 288.45 296.58 311.68 260.64 288.5 293.02"/><ellipse class="cls-2" cx="175.29" cy="342.58" rx="175.29" ry="8.86"/></g></g></svg>