<svg xmlns="http://www.w3.org/2000/svg" viewBox="0 0 306.45 252.43"><defs><style>.cls-1{fill:#5ca967;}.cls-2{fill:#fff;}</style></defs><g id="Layer_2" data-name="Layer 2"><g id="Layer_1-2" data-name="Layer 1"><path class="cls-1" d="M306.37,153.61l.08-.27c-22.13,0-35.68-13.49-52-24.86-11.83-8.25-25.09-15.4-44.19-15.4-8.58,0-15.86.08-22,.26h-45a11.92,11.92,0,1,0,0,23.84h42.27a17.87,17.87,0,0,1,5.74,33.33l-16.44,4.37c-5.56,1.33-10.85,2.75-15.8,4.18l-1.06.28c-18.57,4.91-38.55,10.17-42.18,11a22.38,22.38,0,0,1-6.53-.45L42.66,146.75,30.6,138h0a16.84,16.84,0,0,0-1.81-1,15.49,15.49,0,0,0-5.14-1.67,18.49,18.49,0,0,0-2.6-.21,17.23,17.23,0,0,0-3.47.35A19.17,19.17,0,0,0,0,154.55a18.92,18.92,0,0,0,5.72,13.54l0,0,.1.07a19.25,19.25,0,0,0,4.72,3.42l4.58,3.34L119.47,250.6h0l1.29.49a21.66,21.66,0,0,0,11.92.9l.53-.13c35.35-9,108.42-27.57,142.61-36l2.47-.91c8.73-2.19,20.61-4.79,28.08-4.79v-5h.08l-.08-6.86V153.61Z"/><rect class="cls-1" x="33.83" width="173.96" height="85.51"/><path class="cls-2" d="M198.65,58.18V26.07c-6.27-.66-16.84-1.42-19.05-18.56H63.17C60.84,25.73,49,25.81,43,26.17v32c6.14.36,18.34.54,20.32,19.82H175.94C178.23,55.74,194.14,57.94,198.65,58.18Z"/><path class="cls-1" d="M158.44,42.75A10.51,10.51,0,1,1,169,53.26,10.52,10.52,0,0,1,158.44,42.75Z"/><path class="cls-1" d="M66.75,42.75A10.5,10.5,0,1,1,77.24,53.26,10.51,10.51,0,0,1,66.75,42.75Z"/><path class="cls-1" d="M94.26,42.75a26.37,26.37,0,1,1,26.37,26.36A26.36,26.36,0,0,1,94.26,42.75Z"/><path class="cls-2" d="M108,36.21c.06,7,7.68,8,7.68,8a28,28,0,0,1,2.9.17V55.23c-4.1-1.13-2.74-5.11-2.74-5.11h-6.54s-2.68,10.16,9.28,11.6v.9a2.29,2.29,0,0,0,4.58,0v-.77c10.52-.62,10.68-7.5,10.54-11.4s-.89-8.61-10.54-10.57V29.05c4,1.45,3,6.67,3,6.67h7.54c.3-3.49.07-10-10.52-11V22.89a2.29,2.29,0,0,0-4.58,0v1.76C111,25.06,107.85,28.17,108,36.21Zm19,13.91a5.13,5.13,0,0,1-3.81,5.14V45.51C127.16,47.24,126.92,50.12,126.92,50.12ZM118.53,29V39C112.28,36.85,113.5,30.51,118.53,29Z"/></g></g></svg>