<svg xmlns="http://www.w3.org/2000/svg" viewBox="0 0 272.28 220.54"><defs><style>.cls-1{fill:#5ca967;}.cls-2{fill:#fff;}.cls-3{fill:#52935a;}</style></defs><g id="Layer_2" data-name="Layer 2"><g id="Layer_1-2" data-name="Layer 1"><rect class="cls-1" width="167.08" height="82.13"/><path class="cls-2" d="M158.3,55.88V25c-6-.64-16.18-1.37-18.29-17.83H28.17C25.94,24.72,14.6,24.79,8.81,25.14V55.88c5.9.35,17.61.52,19.52,19H136.49C138.68,53.54,154,55.65,158.3,55.88Z"/><path class="cls-1" d="M119.68,41.06a10.09,10.09,0,1,1,10.1,10.09A10.09,10.09,0,0,1,119.68,41.06Z"/><path class="cls-1" d="M31.62,41.06A10.09,10.09,0,1,1,41.69,51.15,10.08,10.08,0,0,1,31.62,41.06Z"/><path class="cls-1" d="M58,41.06A25.32,25.32,0,1,1,83.36,66.38,25.32,25.32,0,0,1,58,41.06Z"/><path class="cls-2" d="M71.18,34.78c.07,6.75,7.38,7.7,7.38,7.7,1,0,1.94.07,2.79.16V53.05c-3.94-1.09-2.63-4.91-2.63-4.91H72.43s-2.57,9.75,8.92,11.14v.87a2.16,2.16,0,0,0,2.19,2.13,2.18,2.18,0,0,0,2.21-2.13V59.4c10.1-.59,10.25-7.2,10.12-10.95S95,40.19,85.75,38.3V27.9c3.79,1.39,2.86,6.41,2.86,6.41h7.24c.29-3.35.07-9.66-10.1-10.57V22a2.18,2.18,0,0,0-2.21-2.13A2.16,2.16,0,0,0,81.35,22v1.69C74.14,24.07,71.09,27.06,71.18,34.78ZM89.4,48.14a4.93,4.93,0,0,1-3.65,4.93V43.71C89.64,45.38,89.4,48.14,89.4,48.14ZM81.35,27.86v9.56C75.35,35.39,76.52,29.3,81.35,27.86Z"/><path class="cls-3" d="M53.34,135.86s12.43-9.37,26.85,6c52.29,55.8,102.34,23.48,102.34,23.48l-89,32.32L50.14,139.61Z"/><path class="cls-1" d="M259.28,151.38l.06-.24c-15.73,0-25.36-12.24-36.93-22.54-8.4-7.49-17.83-14-31.4-14-6.1,0-11.27.07-15.66.23H143.64c-4.67,0-8.67,4.66-8.76,10.62s3.75,11,8.48,11h30c6.06,1.27,10.68,8,10.68,16,0,6.13-2.67,11.41-6.6,14.17l-11.69,4c-3.95,1.21-7.7,2.5-11.22,3.79l-.76.26C106,194.66,71.89,145.16,71.89,145.16l-8.57-7.91v0a10.53,10.53,0,0,0-1.29-.93,10.33,10.33,0,0,0-2-1,10.59,10.59,0,0,0-3.52-.66,9.61,9.61,0,0,0-2.47.32c-7,.77-10.17,6.85-10.17,16,0,13.39,43.64,69.61,95.37,69.61s74-5.08,98.3-12.72l1.76-.83c6.2-2,14.65-4.34,19.95-4.34l9.33-1c2.07-.21,3.67-2.42,3.67-5.07V155.9c0-3-2-5.37-4.32-5.19Z"/></g></g></svg>