<svg xmlns="http://www.w3.org/2000/svg" viewBox="0 0 276.3 338.55"><defs><style>.cls-1{isolation:isolate;}.cls-2{fill:#5ca967;}.cls-3{fill:#474755;}.cls-4{fill:#668c44;opacity:0.5;mix-blend-mode:multiply;}.cls-5{font-size:87.39px;fill:#fff;font-family:Noteworthy-Bold, Noteworthy;font-weight:700;}</style></defs><g class="cls-1"><g id="Layer_2" data-name="Layer 2"><g id="Layer_1-2" data-name="Layer 1"><path class="cls-2" d="M100.43,87.21C97.62,84.42,94.78,73.47,92,70.56,74.87,52.71,59.33,33.47,60.33,23.31,62.5,1.17,110.6,35,110.6,35S108.47,0,134.53,0s23.94,35,23.94,35,48.09-33.79,50.27-11.65c1,10.13-14.45,29.28-31.51,47.08-2.84,3-5.73,14-8.6,16.82,57.79,17.09,95.58,55.08,105.11,128.86,3.24,25.08,5,59.55-4.69,80.53-7.77,16.9-18.37,29.15-37.53,34.62-2.76.79-20.67,1.26-23.52,1.66a628.1,628.1,0,0,1-82.41,5.67c-33.69,0-56.12-3.67-64.92-5.42a61.05,61.05,0,0,1-7.15-1.86c-20.65-6.81-29.61-16.2-37.4-32.51A167.41,167.41,0,0,1,0,226.49C0,155.72,42.65,104.3,100.43,87.21Z"/><path class="cls-3" d="M61.18,212.77a59.3,59.3,0,1,0,59.3-59.29A59.28,59.28,0,0,0,61.18,212.77Z"/><path class="cls-4" d="M273.74,216.07C265.33,151,234.88,113.75,188.13,94.16c-.77-.16-1.51-.39-2.29-.54h.2a145.89,145.89,0,0,0-17.41-6.41c1.62-1.6,3.25-5.8,4.87-9.69,0,0,0-.11.06-.15l0-.08c1.22-2.91,2.44-5.63,3.64-6.9q2.09-2.17,4.13-4.37v0c1.76-1.89,3.49-3.79,5.21-5.72l.72-.82c1.24-1.4,2.45-2.82,3.66-4.25l1.48-1.76c1.48-1.79,2.93-3.61,4.33-5.45l.28-.36q2.38-3.15,4.58-6.43l.49-.73c4.44-6.83,7-12.83,6.62-17.17A8.44,8.44,0,0,0,206.53,18a7.52,7.52,0,0,0-.78-.69h0a8.06,8.06,0,0,0-1.16-.69c-5.34-2.46-14.93.81-24,5.23l-.59.3c1.36,7.08-3.87,14.63-7.63,20.15C166.1,51.52,158.62,59.9,151,68h0c-4,5.26,1,21.45,6.78,25.63h-.45a138.47,138.47,0,0,1,75,81.7c7.15,20.88,9.45,43.28,7.67,65.23-1.9,23.4-8.15,48.61-21.53,68.22-7,10.26-16,20.29-27.14,26.15,7.32-.79,13-1.53,16.7-2,2.85-.4,20.76-.87,23.52-1.66,19.16-5.47,29.76-17.72,37.53-34.62C278.7,275.62,277,241.15,273.74,216.07Z"/><path class="cls-3" d="M186.3,93.62H82.77C88.59,89.45,93.53,73.25,89.55,68h90C175.53,73.25,180.48,89.45,186.3,93.62Z"/><text class="cls-5" transform="translate(89.9 246.56)">£</text></g></g></g></svg>