<svg xmlns="http://www.w3.org/2000/svg" viewBox="0 0 246.43 301.95"><defs><style>.cls-1{fill:#5ca967;}.cls-2{fill:#474755;}.cls-3{fill:#52935a;}.cls-4{font-size:77.95px;fill:#fff;font-family:Noteworthy-Bold, Noteworthy;font-weight:700;}</style></defs><g id="Layer_2" data-name="Layer 2"><g id="Layer_1-2" data-name="Layer 1"><path class="cls-1" d="M89.58,77.79c-2.51-2.5-5-12.26-7.54-14.86C66.78,47,52.92,29.85,53.81,20.79,55.74,1,98.64,31.18,98.64,31.18S96.74,0,120,0s21.35,31.18,21.35,31.18S184.24,1,186.17,20.79c.89,9-12.89,26.12-28.09,42-2.54,2.65-5.12,12.47-7.68,15,51.54,15.24,85.25,49.12,93.75,114.92,2.89,22.38,4.42,53.12-4.18,71.83-6.93,15.07-16.39,26-33.48,30.88-2.46.7-18.43,1.12-21,1.47A559.38,559.38,0,0,1,112,302c-30,0-50.05-3.27-57.9-4.84a51.8,51.8,0,0,1-6.37-1.65c-18.42-6.07-26.41-14.45-33.36-29A149.26,149.26,0,0,1,0,202C0,138.89,38,93,89.58,77.79Z"/><path class="cls-2" d="M54.57,189.77a52.89,52.89,0,1,0,52.88-52.88A52.87,52.87,0,0,0,54.57,189.77Z"/><path class="cls-3" d="M244.15,192.71c-7.5-58.07-34.66-91.25-76.35-108.73-.69-.14-1.35-.35-2.05-.48h.18a129.09,129.09,0,0,0-15.53-5.71c1.44-1.44,2.9-5.18,4.34-8.65a1.21,1.21,0,0,0,0-.14l0-.06c1.08-2.6,2.17-5,3.25-6.16q1.86-1.94,3.67-3.9l0,0q2.34-2.52,4.64-5.09l.64-.74c1.11-1.25,2.19-2.51,3.26-3.79.45-.52.9-1.05,1.33-1.57,1.32-1.6,2.61-3.21,3.86-4.86l.25-.32c1.42-1.88,2.78-3.78,4.09-5.73l.43-.65c4-6.1,6.28-11.45,5.9-15.32a7.47,7.47,0,0,0-2-4.72,8.4,8.4,0,0,0-.69-.62h0a8.32,8.32,0,0,0-1-.61c-4.76-2.19-13.31.72-21.39,4.67l-.53.26c1.21,6.32-3.45,13.05-6.81,18-5.6,8.21-12.27,15.68-19.07,22.9h0c-3.56,4.69.85,19.14,6.05,22.86h-.41a123.52,123.52,0,0,1,66.88,72.87A144,144,0,0,1,214,214.55c-1.69,20.87-7.27,43.35-19.2,60.85-6.24,9.14-14.3,18.08-24.21,23.31,6.53-.7,11.64-1.36,14.9-1.82,2.54-.35,18.51-.77,21-1.47,17.09-4.88,26.55-15.81,33.48-30.88C248.57,245.83,247,215.08,244.15,192.71Z"/><path class="cls-2" d="M166.16,83.5H73.82c5.19-3.72,9.6-18.17,6.05-22.86h80.24C156.56,65.33,161,79.78,166.16,83.5Z"/><text class="cls-4" transform="translate(80.18 219.91)">£</text></g></g></svg>